<svg width="908" height="746" viewBox="0 0 908 746" fill="none" xmlns="http://www.w3.org/2000/svg">
<rect width="908" height="746" fill="#0F0F0F"/>
<path d="M589.463 375.806C614.514 393.161 608.252 431.81 579.001 440.367L346.149 508.504C320.003 516.154 295.081 493.3 300.445 466.594L340.887 265.135C346.017 239.582 375.631 227.64 397.051 242.481L589.463 375.806Z" fill="#463F23"/>
<path d="M152 320.647V315.145H179.411C198.406 315.145 209.951 324.641 209.951 340.722C209.951 356.692 198.406 366.191 179.411 366.191H158.151V390.688H152V360.686H179.411C195.166 360.686 203.692 353.347 203.692 340.722C203.692 327.986 195.166 320.647 179.411 320.647H152ZM228.196 355.073V349.572H279.026V355.073H228.196ZM228.196 319.459V313.957H279.026V319.459H228.196ZM228.196 385.183V390.688H279.026V385.183H228.196ZM332.236 391.226C309.681 391.226 292.846 374.93 292.846 352.916C292.846 330.9 309.681 314.603 332.236 314.603C354.791 314.603 371.626 330.9 371.626 352.916C371.626 374.93 354.791 391.226 332.236 391.226ZM332.236 385.617C351.231 385.617 365.367 371.693 365.367 352.916C365.367 334.137 351.231 320.216 332.236 320.216C313.241 320.216 299.105 334.137 299.105 352.916C299.105 371.693 313.241 385.617 332.236 385.617ZM390.393 320.647V315.145H417.804C436.799 315.145 448.348 324.641 448.348 340.722C448.348 356.692 436.799 366.191 417.804 366.191H396.544V390.688H390.393V360.686H417.804C433.562 360.686 442.089 353.347 442.089 340.722C442.089 327.986 433.562 320.647 417.804 320.647H390.393ZM515.912 390.688H466.592V315.145H472.743V385.183H515.912V390.688ZM529.827 355.073V349.572H580.657V355.073H529.827ZM529.827 319.459V313.957H580.657V319.459H529.827ZM529.827 385.183V390.688H580.657V385.183H529.827ZM601.129 391.119C598.434 391.119 596.166 388.962 596.166 386.155C596.166 383.349 598.434 381.192 601.129 381.192C603.72 381.192 605.988 383.349 605.988 386.155C605.988 388.962 603.72 391.119 601.129 391.119ZM646.123 391.226C634.898 391.226 623.999 387.128 618.494 381.192L621.192 376.441C626.371 381.73 635.978 385.832 646.123 385.832C660.905 385.832 667.383 379.466 667.383 371.478C667.383 349.353 620.435 362.735 620.435 334.786C620.435 324.102 628.747 314.603 647.523 314.603C655.942 314.603 664.684 317.086 670.512 321.404L668.244 326.367C661.878 322.05 654.324 320 647.523 320C633.171 320 626.697 326.582 626.697 334.678C626.697 356.8 673.642 343.636 673.642 371.154C673.642 381.946 665.007 391.226 646.123 391.226ZM717.275 321.834L686.089 390.688H679.504L714.253 315.145H720.408L755.158 390.688H748.465L717.275 321.834Z" fill="#B7A14E"/>
<path d="M209.095 430.86H207.495V412.967H200.602V411.56H215.987V412.967H209.095V430.86ZM220.988 420.355H233.672V411.56H235.241V430.86H233.672V421.761H220.988V430.86H219.415V411.56H220.988V420.355ZM241.872 421.761V420.355H254.857V421.761H241.872ZM241.872 412.662V411.256H254.857V412.662H241.872ZM241.872 429.454V430.86H254.857V429.454H241.872ZM277.76 424.134L282.558 430.86H280.767L276.216 424.491C275.665 424.546 275.086 424.601 274.453 424.601H269.021V430.86H267.449V423.223H274.453C278.477 423.223 280.656 421.321 280.656 418.096C280.656 414.841 278.477 412.967 274.453 412.967H267.449V411.56H274.453C279.305 411.56 282.256 413.985 282.256 418.096C282.256 421.155 280.601 423.278 277.76 424.134ZM288.89 430.86H287.321V411.56H288.89V430.86ZM310.753 421.266V428.543C308.987 430.171 306.451 430.999 303.805 430.999C297.986 430.999 293.685 426.835 293.685 421.21C293.685 415.585 297.986 411.422 303.833 411.422C306.645 411.422 309.125 412.305 310.833 414.096L309.842 415.145C308.187 413.518 306.175 412.856 303.888 412.856C298.925 412.856 295.285 416.441 295.285 421.21C295.285 425.98 298.925 429.565 303.861 429.565C305.845 429.565 307.692 429.097 309.236 427.882V421.266H310.753ZM318.4 420.355H331.084V411.56H332.656V430.86H331.084V421.761H318.4V430.86H316.831V411.56H318.4V420.355ZM344.58 430.86H342.98V412.967H336.087V411.56H351.473V412.967H344.58V430.86ZM362.036 412.967V411.56H369.04C373.893 411.56 376.84 413.985 376.84 418.096C376.84 422.177 373.893 424.601 369.04 424.601H363.609V430.86H362.036V423.195H369.04C373.065 423.195 375.243 421.321 375.243 418.096C375.243 414.841 373.065 412.967 369.04 412.967H362.036ZM381.502 421.761V420.355H394.488V421.761H381.502ZM381.502 412.662V411.256H394.488V412.662H381.502ZM381.502 429.454V430.86H394.488V429.454H381.502ZM408.082 430.999C402.319 430.999 398.02 426.835 398.02 421.21C398.02 415.585 402.319 411.422 408.082 411.422C413.846 411.422 418.145 415.585 418.145 421.21C418.145 426.835 413.846 430.999 408.082 430.999ZM408.082 429.565C412.935 429.565 416.548 426.008 416.548 421.21C416.548 416.413 412.935 412.856 408.082 412.856C403.23 412.856 399.617 416.413 399.617 421.21C399.617 426.008 403.23 429.565 408.082 429.565ZM422.939 412.967V411.56H429.942C434.795 411.56 437.746 413.985 437.746 418.096C437.746 422.177 434.795 424.601 429.942 424.601H424.511V430.86H422.939V423.195H429.942C433.967 423.195 436.146 421.321 436.146 418.096C436.146 414.841 433.967 412.967 429.942 412.967H422.939ZM455.005 430.86H442.408V411.56H443.977V429.454H455.005V430.86ZM458.563 421.761V420.355H471.548V421.761H458.563ZM458.563 412.662V411.256H471.548V412.662H458.563ZM458.563 429.454V430.86H471.548V429.454H458.563ZM484.139 430.86V421.016H495.913V422.423H485.712V430.86H484.139ZM484.139 412.967V411.56H497.125V412.967H484.139ZM509.563 430.999C503.799 430.999 499.497 426.835 499.497 421.21C499.497 415.585 503.799 411.422 509.563 411.422C515.323 411.422 519.625 415.585 519.625 421.21C519.625 426.835 515.323 430.999 509.563 430.999ZM509.563 429.565C514.415 429.565 518.025 426.008 518.025 421.21C518.025 416.413 514.415 412.856 509.563 412.856C504.71 412.856 501.097 416.413 501.097 421.21C501.097 426.008 504.71 429.565 509.563 429.565ZM534.73 424.134L539.528 430.86H537.737L533.186 424.491C532.635 424.546 532.056 424.601 531.422 424.601H525.991V430.86H524.419V423.223H531.422C535.447 423.223 537.626 421.321 537.626 418.096C537.626 414.841 535.447 412.967 531.422 412.967H524.419V411.56H531.422C536.275 411.56 539.226 413.985 539.226 418.096C539.226 421.155 537.571 423.278 534.73 424.134ZM557.575 424.217V430.86H555.975V424.217L548.227 411.56H549.937L556.802 422.783L563.695 411.56H565.32L557.575 424.217ZM576.145 430.999C570.385 430.999 566.083 426.835 566.083 421.21C566.083 415.585 570.385 411.422 576.145 411.422C581.909 411.422 586.21 415.585 586.21 421.21C586.21 426.835 581.909 430.999 576.145 430.999ZM576.145 429.565C580.998 429.565 584.61 426.008 584.61 421.21C584.61 416.413 580.998 412.856 576.145 412.856C571.296 412.856 567.683 416.413 567.683 421.21C567.683 426.008 571.296 429.565 576.145 429.565ZM598.614 430.999C593.789 430.999 590.838 428.186 590.838 422.672V411.56H592.411V422.589C592.411 427.331 594.673 429.565 598.642 429.565C602.584 429.565 604.845 427.331 604.845 422.589V411.56H606.418V422.672C606.418 428.186 603.467 430.999 598.614 430.999ZM623.151 424.134L627.948 430.86H626.158L621.607 424.491C621.056 424.546 620.477 424.601 619.843 424.601H614.412V430.86H612.84V423.223H619.843C623.868 423.223 626.047 421.321 626.047 418.096C626.047 414.841 623.868 412.967 619.843 412.967H612.84V411.56H619.843C624.696 411.56 627.647 413.985 627.647 418.096C627.647 421.155 625.991 423.278 623.151 424.134ZM641.666 430.999C639.543 430.999 637.614 430.005 636.481 428.269L637.448 427.192C638.494 428.737 639.955 429.592 641.694 429.592C644.202 429.592 645.442 428.158 645.442 425.124V412.967H638.331V411.56H647.014V425.097C647.014 429.042 645.196 430.999 641.666 430.999ZM661.714 430.999C655.95 430.999 651.651 426.835 651.651 421.21C651.651 415.585 655.95 411.422 661.714 411.422C667.477 411.422 671.776 415.585 671.776 421.21C671.776 426.835 667.477 430.999 661.714 430.999ZM661.714 429.565C666.566 429.565 670.179 426.008 670.179 421.21C670.179 416.413 666.566 412.856 661.714 412.856C656.861 412.856 653.248 416.413 653.248 421.21C653.248 426.008 656.861 429.565 661.714 429.565ZM676.57 412.911V411.56H684.678C688.869 411.56 691.377 413.324 691.377 416.496C691.377 418.758 690.109 420.244 688.235 420.906C690.882 421.432 692.396 423.084 692.396 425.731C692.396 429.014 690.026 430.86 685.229 430.86H676.57V429.509H685.229C688.841 429.509 690.799 428.325 690.799 425.623C690.799 422.921 688.841 421.733 685.229 421.733H676.57V420.41H684.623C687.875 420.41 689.777 419.143 689.777 416.662C689.777 414.179 687.875 412.911 684.623 412.911H676.57Z" fill="#AEAEAE"/>
</svg>
